<svg id="visual" viewBox="0 0 900 600" width="900" height="600" xmlns="http://www.w3.org/2000/svg" xmlns:xlink="http://www.w3.org/1999/xlink" version="1.1"><rect x="0" y="0" width="900" height="600" fill="#FF0066"></rect><g transform="translate(-27.88800887501847 -57.63563972232396)"><path d="M113.9 -152.5C169.1 -116.8 250 -112.1 307 -68.6C363.9 -25.1 396.9 57.3 395.3 148.9C393.8 240.6 357.6 341.6 286 348.5C214.3 355.4 107.2 268.2 -5.2 275.3C-117.6 282.5 -235.1 383.9 -293 372.6C-350.8 361.2 -349 237 -319.1 146.7C-289.1 56.4 -231.1 0.1 -190.1 -41.9C-149.1 -83.9 -125.1 -111.5 -96.2 -155.8C-67.4 -200.1 -33.7 -261.1 -2.2 -258.1C29.4 -255.1 58.8 -188.2 113.9 -152.5" fill="#BB004B"></path></g></svg>